<svg width="160" height="160" viewBox="0 0 160 160" fill="none" xmlns="http://www.w3.org/2000/svg" role="img" aria-label="HoopHQ crystal-ball mark">
  <defs>
    <radialGradient id="hqSphere" cx="38%" cy="32%" r="78%">
      <stop offset="0%" stop-color="#FF8A52"></stop>
      <stop offset="42%" stop-color="#EE5A24"></stop>
      <stop offset="100%" stop-color="#A8350F"></stop>
    </radialGradient>
    <radialGradient id="hqSheen" cx="34%" cy="26%" r="40%">
      <stop offset="0%" stop-color="#FFFFFF" stop-opacity="0.85"></stop>
      <stop offset="60%" stop-color="#FFFFFF" stop-opacity="0.12"></stop>
      <stop offset="100%" stop-color="#FFFFFF" stop-opacity="0"></stop>
    </radialGradient>
    <linearGradient id="hqBase" x1="0" y1="0" x2="0" y2="1">
      <stop offset="0%" stop-color="#3C352A"></stop>
      <stop offset="100%" stop-color="#14110D"></stop>
    </linearGradient>
    <clipPath id="hqClip"><circle cx="80" cy="70" r="50"></circle></clipPath>
  </defs>

  
  <ellipse cx="80" cy="140" rx="30" ry="5.5" fill="#0E0C09" opacity="0.55"></ellipse>
  <path d="M50 112 Q80 138 110 112 Q104 130 80 132 Q56 130 50 112 Z" fill="url(#hqBase)"></path>
  <rect x="71" y="130" width="18" height="9" rx="3" fill="url(#hqBase)"></rect>

  
  <circle cx="80" cy="70" r="50" fill="url(#hqSphere)"></circle>

  
  <g clip-path="url(#hqClip)" stroke="#3A1605" stroke-width="3.4" fill="none" stroke-linecap="round" opacity="0.92">
    <line x1="80" y1="20" x2="80" y2="120"></line>
    <line x1="30" y1="70" x2="130" y2="70"></line>
    <path d="M80 20 C 44 40, 44 100, 80 120"></path>
    <path d="M80 20 C 116 40, 116 100, 80 120"></path>
  </g>

  
  <circle cx="80" cy="70" r="50" fill="url(#hqSheen)"></circle>
  <g fill="#FFFFFF">
    <path d="M108 40 l2.6 6.4 6.4 2.6 -6.4 2.6 -2.6 6.4 -2.6 -6.4 -6.4 -2.6 6.4 -2.6 Z" opacity="0.92"></path>
    <circle cx="58" cy="50" r="2.4" opacity="0.8"></circle>
  </g>
</svg>